<svg xmlns="http://www.w3.org/2000/svg" width="1600" height="750" viewBox="0 0 1600 750" role="img" aria-label="Final image: modern apartment development or multi-residential investment property; wide landscape crop.">
  <defs><linearGradient id="sky" x1="0" y1="0" x2="1" y2="1"><stop offset="0" stop-color="#00152f"/><stop offset="0.48" stop-color="#7f8f98"/><stop offset="1" stop-color="#f4f0e7"/></linearGradient></defs>
  <rect width="100%" height="100%" fill="url(#sky)"/>
  <rect x="0" y="540" width="1600" height="210" fill="#d9d5ca"/>
  <g opacity=".92"><rect x="811" y="397" width="289" height="280" fill="#f7f5f1"/>
<rect x="829" y="421" width="16" height="22" fill="#fffaf0" opacity=".72"/>
<rect x="829" y="469" width="16" height="22" fill="#fffaf0" opacity=".72"/>
<rect x="829" y="517" width="16" height="22" fill="#fffaf0" opacity=".72"/>
<rect x="829" y="565" width="16" height="22" fill="#d7a35a" opacity=".72"/>
<rect x="829" y="613" width="16" height="22" fill="#6d7d89" opacity=".72"/>
<rect x="829" y="661" width="16" height="22" fill="#d7a35a" opacity=".72"/>
<rect x="871" y="421" width="16" height="22" fill="#6d7d89" opacity=".72"/>
<rect x="871" y="469" width="16" height="22" fill="#fffaf0" opacity=".72"/>
<rect x="871" y="517" width="16" height="22" fill="#d7a35a" opacity=".72"/>
<rect x="871" y="565" width="16" height="22" fill="#fffaf0" opacity=".72"/>
<rect x="871" y="613" width="16" height="22" fill="#fffaf0" opacity=".72"/>
<rect x="871" y="661" width="16" height="22" fill="#fffaf0" opacity=".72"/>
<rect x="913" y="421" width="16" height="22" fill="#6d7d89" opacity=".72"/>
<rect x="913" y="469" width="16" height="22" fill="#fffaf0" opacity=".72"/>
<rect x="913" y="517" width="16" height="22" fill="#d7a35a" opacity=".72"/>
<rect x="913" y="565" width="16" height="22" fill="#d7a35a" opacity=".72"/>
<rect x="913" y="613" width="16" height="22" fill="#6d7d89" opacity=".72"/>
<rect x="913" y="661" width="16" height="22" fill="#6d7d89" opacity=".72"/>
<rect x="955" y="421" width="16" height="22" fill="#fffaf0" opacity=".72"/>
<rect x="955" y="469" width="16" height="22" fill="#6d7d89" opacity=".72"/>
<rect x="955" y="517" width="16" height="22" fill="#fffaf0" opacity=".72"/>
<rect x="955" y="565" width="16" height="22" fill="#fffaf0" opacity=".72"/>
<rect x="955" y="613" width="16" height="22" fill="#d7a35a" opacity=".72"/>
<rect x="955" y="661" width="16" height="22" fill="#6d7d89" opacity=".72"/>
<rect x="997" y="421" width="16" height="22" fill="#fffaf0" opacity=".72"/>
<rect x="997" y="469" width="16" height="22" fill="#fffaf0" opacity=".72"/>
<rect x="997" y="517" width="16" height="22" fill="#fffaf0" opacity=".72"/>
<rect x="997" y="565" width="16" height="22" fill="#fffaf0" opacity=".72"/>
<rect x="997" y="613" width="16" height="22" fill="#fffaf0" opacity=".72"/>
<rect x="997" y="661" width="16" height="22" fill="#d7a35a" opacity=".72"/>
<rect x="1039" y="421" width="16" height="22" fill="#fffaf0" opacity=".72"/>
<rect x="1039" y="469" width="16" height="22" fill="#d7a35a" opacity=".72"/>
<rect x="1039" y="517" width="16" height="22" fill="#fffaf0" opacity=".72"/>
<rect x="1039" y="565" width="16" height="22" fill="#fffaf0" opacity=".72"/>
<rect x="1039" y="613" width="16" height="22" fill="#6d7d89" opacity=".72"/>
<rect x="1039" y="661" width="16" height="22" fill="#fffaf0" opacity=".72"/>
<rect x="1081" y="421" width="16" height="22" fill="#fffaf0" opacity=".72"/>
<rect x="1081" y="469" width="16" height="22" fill="#fffaf0" opacity=".72"/>
<rect x="1081" y="517" width="16" height="22" fill="#d7a35a" opacity=".72"/>
<rect x="1081" y="565" width="16" height="22" fill="#6d7d89" opacity=".72"/>
<rect x="1081" y="613" width="16" height="22" fill="#6d7d89" opacity=".72"/>
<rect x="1081" y="661" width="16" height="22" fill="#6d7d89" opacity=".72"/>
<rect x="1467" y="252" width="311" height="421" fill="#173551"/>
<rect x="1485" y="276" width="16" height="22" fill="#fffaf0" opacity=".72"/>
<rect x="1485" y="324" width="16" height="22" fill="#6d7d89" opacity=".72"/>
<rect x="1485" y="372" width="16" height="22" fill="#6d7d89" opacity=".72"/>
<rect x="1485" y="420" width="16" height="22" fill="#fffaf0" opacity=".72"/>
<rect x="1485" y="468" width="16" height="22" fill="#d7a35a" opacity=".72"/>
<rect x="1485" y="516" width="16" height="22" fill="#fffaf0" opacity=".72"/>
<rect x="1485" y="564" width="16" height="22" fill="#d7a35a" opacity=".72"/>
<rect x="1485" y="612" width="16" height="22" fill="#6d7d89" opacity=".72"/>
<rect x="1485" y="660" width="16" height="22" fill="#fffaf0" opacity=".72"/>
<rect x="1527" y="276" width="16" height="22" fill="#fffaf0" opacity=".72"/>
<rect x="1527" y="324" width="16" height="22" fill="#fffaf0" opacity=".72"/>
<rect x="1527" y="372" width="16" height="22" fill="#6d7d89" opacity=".72"/>
<rect x="1527" y="420" width="16" height="22" fill="#fffaf0" opacity=".72"/>
<rect x="1527" y="468" width="16" height="22" fill="#6d7d89" opacity=".72"/>
<rect x="1527" y="516" width="16" height="22" fill="#d7a35a" opacity=".72"/>
<rect x="1527" y="564" width="16" height="22" fill="#d7a35a" opacity=".72"/>
<rect x="1527" y="612" width="16" height="22" fill="#d7a35a" opacity=".72"/>
<rect x="1527" y="660" width="16" height="22" fill="#fffaf0" opacity=".72"/>
<rect x="1569" y="276" width="16" height="22" fill="#d7a35a" opacity=".72"/>
<rect x="1569" y="324" width="16" height="22" fill="#6d7d89" opacity=".72"/>
<rect x="1569" y="372" width="16" height="22" fill="#d7a35a" opacity=".72"/>
<rect x="1569" y="420" width="16" height="22" fill="#fffaf0" opacity=".72"/>
<rect x="1569" y="468" width="16" height="22" fill="#d7a35a" opacity=".72"/>
<rect x="1569" y="516" width="16" height="22" fill="#6d7d89" opacity=".72"/>
<rect x="1569" y="564" width="16" height="22" fill="#fffaf0" opacity=".72"/>
<rect x="1569" y="612" width="16" height="22" fill="#6d7d89" opacity=".72"/>
<rect x="1569" y="660" width="16" height="22" fill="#d7a35a" opacity=".72"/>
<rect x="1611" y="276" width="16" height="22" fill="#fffaf0" opacity=".72"/>
<rect x="1611" y="324" width="16" height="22" fill="#d7a35a" opacity=".72"/>
<rect x="1611" y="372" width="16" height="22" fill="#fffaf0" opacity=".72"/>
<rect x="1611" y="420" width="16" height="22" fill="#d7a35a" opacity=".72"/>
<rect x="1611" y="468" width="16" height="22" fill="#6d7d89" opacity=".72"/>
<rect x="1611" y="516" width="16" height="22" fill="#d7a35a" opacity=".72"/>
<rect x="1611" y="564" width="16" height="22" fill="#6d7d89" opacity=".72"/>
<rect x="1611" y="612" width="16" height="22" fill="#6d7d89" opacity=".72"/>
<rect x="1611" y="660" width="16" height="22" fill="#fffaf0" opacity=".72"/>
<rect x="1653" y="276" width="16" height="22" fill="#6d7d89" opacity=".72"/>
<rect x="1653" y="324" width="16" height="22" fill="#6d7d89" opacity=".72"/>
<rect x="1653" y="372" width="16" height="22" fill="#d7a35a" opacity=".72"/>
<rect x="1653" y="420" width="16" height="22" fill="#d7a35a" opacity=".72"/>
<rect x="1653" y="468" width="16" height="22" fill="#fffaf0" opacity=".72"/>
<rect x="1653" y="516" width="16" height="22" fill="#6d7d89" opacity=".72"/>
<rect x="1653" y="564" width="16" height="22" fill="#fffaf0" opacity=".72"/>
<rect x="1653" y="612" width="16" height="22" fill="#6d7d89" opacity=".72"/>
<rect x="1653" y="660" width="16" height="22" fill="#fffaf0" opacity=".72"/>
<rect x="1695" y="276" width="16" height="22" fill="#fffaf0" opacity=".72"/>
<rect x="1695" y="324" width="16" height="22" fill="#d7a35a" opacity=".72"/>
<rect x="1695" y="372" width="16" height="22" fill="#6d7d89" opacity=".72"/>
<rect x="1695" y="420" width="16" height="22" fill="#6d7d89" opacity=".72"/>
<rect x="1695" y="468" width="16" height="22" fill="#d7a35a" opacity=".72"/>
<rect x="1695" y="516" width="16" height="22" fill="#d7a35a" opacity=".72"/>
<rect x="1695" y="564" width="16" height="22" fill="#d7a35a" opacity=".72"/>
<rect x="1695" y="612" width="16" height="22" fill="#6d7d89" opacity=".72"/>
<rect x="1695" y="660" width="16" height="22" fill="#fffaf0" opacity=".72"/>
<rect x="1737" y="276" width="16" height="22" fill="#fffaf0" opacity=".72"/>
<rect x="1737" y="324" width="16" height="22" fill="#d7a35a" opacity=".72"/>
<rect x="1737" y="372" width="16" height="22" fill="#d7a35a" opacity=".72"/>
<rect x="1737" y="420" width="16" height="22" fill="#6d7d89" opacity=".72"/>
<rect x="1737" y="468" width="16" height="22" fill="#6d7d89" opacity=".72"/>
<rect x="1737" y="516" width="16" height="22" fill="#fffaf0" opacity=".72"/>
<rect x="1737" y="564" width="16" height="22" fill="#fffaf0" opacity=".72"/>
<rect x="1737" y="612" width="16" height="22" fill="#d7a35a" opacity=".72"/>
<rect x="1737" y="660" width="16" height="22" fill="#d7a35a" opacity=".72"/>
<rect x="643" y="348" width="249" height="328" fill="#c8c5bc"/>
<rect x="661" y="372" width="16" height="22" fill="#6d7d89" opacity=".72"/>
<rect x="661" y="420" width="16" height="22" fill="#d7a35a" opacity=".72"/>
<rect x="661" y="468" width="16" height="22" fill="#fffaf0" opacity=".72"/>
<rect x="661" y="516" width="16" height="22" fill="#fffaf0" opacity=".72"/>
<rect x="661" y="564" width="16" height="22" fill="#d7a35a" opacity=".72"/>
<rect x="661" y="612" width="16" height="22" fill="#6d7d89" opacity=".72"/>
<rect x="661" y="660" width="16" height="22" fill="#fffaf0" opacity=".72"/>
<rect x="703" y="372" width="16" height="22" fill="#6d7d89" opacity=".72"/>
<rect x="703" y="420" width="16" height="22" fill="#fffaf0" opacity=".72"/>
<rect x="703" y="468" width="16" height="22" fill="#fffaf0" opacity=".72"/>
<rect x="703" y="516" width="16" height="22" fill="#6d7d89" opacity=".72"/>
<rect x="703" y="564" width="16" height="22" fill="#6d7d89" opacity=".72"/>
<rect x="703" y="612" width="16" height="22" fill="#6d7d89" opacity=".72"/>
<rect x="703" y="660" width="16" height="22" fill="#6d7d89" opacity=".72"/>
<rect x="745" y="372" width="16" height="22" fill="#6d7d89" opacity=".72"/>
<rect x="745" y="420" width="16" height="22" fill="#6d7d89" opacity=".72"/>
<rect x="745" y="468" width="16" height="22" fill="#fffaf0" opacity=".72"/>
<rect x="745" y="516" width="16" height="22" fill="#6d7d89" opacity=".72"/>
<rect x="745" y="564" width="16" height="22" fill="#6d7d89" opacity=".72"/>
<rect x="745" y="612" width="16" height="22" fill="#6d7d89" opacity=".72"/>
<rect x="745" y="660" width="16" height="22" fill="#fffaf0" opacity=".72"/>
<rect x="787" y="372" width="16" height="22" fill="#6d7d89" opacity=".72"/>
<rect x="787" y="420" width="16" height="22" fill="#fffaf0" opacity=".72"/>
<rect x="787" y="468" width="16" height="22" fill="#fffaf0" opacity=".72"/>
<rect x="787" y="516" width="16" height="22" fill="#fffaf0" opacity=".72"/>
<rect x="787" y="564" width="16" height="22" fill="#6d7d89" opacity=".72"/>
<rect x="787" y="612" width="16" height="22" fill="#fffaf0" opacity=".72"/>
<rect x="787" y="660" width="16" height="22" fill="#6d7d89" opacity=".72"/>
<rect x="829" y="372" width="16" height="22" fill="#d7a35a" opacity=".72"/>
<rect x="829" y="420" width="16" height="22" fill="#d7a35a" opacity=".72"/>
<rect x="829" y="468" width="16" height="22" fill="#fffaf0" opacity=".72"/>
<rect x="829" y="516" width="16" height="22" fill="#fffaf0" opacity=".72"/>
<rect x="829" y="564" width="16" height="22" fill="#6d7d89" opacity=".72"/>
<rect x="829" y="612" width="16" height="22" fill="#6d7d89" opacity=".72"/>
<rect x="829" y="660" width="16" height="22" fill="#fffaf0" opacity=".72"/>
<rect x="871" y="372" width="16" height="22" fill="#6d7d89" opacity=".72"/>
<rect x="871" y="420" width="16" height="22" fill="#6d7d89" opacity=".72"/>
<rect x="871" y="468" width="16" height="22" fill="#d7a35a" opacity=".72"/>
<rect x="871" y="516" width="16" height="22" fill="#6d7d89" opacity=".72"/>
<rect x="871" y="564" width="16" height="22" fill="#d7a35a" opacity=".72"/>
<rect x="871" y="612" width="16" height="22" fill="#6d7d89" opacity=".72"/>
<rect x="871" y="660" width="16" height="22" fill="#fffaf0" opacity=".72"/>
<rect x="1006" y="409" width="310" height="296" fill="#c8c5bc"/>
<rect x="1024" y="433" width="16" height="22" fill="#fffaf0" opacity=".72"/>
<rect x="1024" y="481" width="16" height="22" fill="#6d7d89" opacity=".72"/>
<rect x="1024" y="529" width="16" height="22" fill="#fffaf0" opacity=".72"/>
<rect x="1024" y="577" width="16" height="22" fill="#6d7d89" opacity=".72"/>
<rect x="1024" y="625" width="16" height="22" fill="#fffaf0" opacity=".72"/>
<rect x="1024" y="673" width="16" height="22" fill="#6d7d89" opacity=".72"/>
<rect x="1066" y="433" width="16" height="22" fill="#6d7d89" opacity=".72"/>
<rect x="1066" y="481" width="16" height="22" fill="#6d7d89" opacity=".72"/>
<rect x="1066" y="529" width="16" height="22" fill="#fffaf0" opacity=".72"/>
<rect x="1066" y="577" width="16" height="22" fill="#d7a35a" opacity=".72"/>
<rect x="1066" y="625" width="16" height="22" fill="#d7a35a" opacity=".72"/>
<rect x="1066" y="673" width="16" height="22" fill="#6d7d89" opacity=".72"/>
<rect x="1108" y="433" width="16" height="22" fill="#d7a35a" opacity=".72"/>
<rect x="1108" y="481" width="16" height="22" fill="#d7a35a" opacity=".72"/>
<rect x="1108" y="529" width="16" height="22" fill="#d7a35a" opacity=".72"/>
<rect x="1108" y="577" width="16" height="22" fill="#d7a35a" opacity=".72"/>
<rect x="1108" y="625" width="16" height="22" fill="#fffaf0" opacity=".72"/>
<rect x="1108" y="673" width="16" height="22" fill="#6d7d89" opacity=".72"/>
<rect x="1150" y="433" width="16" height="22" fill="#fffaf0" opacity=".72"/>
<rect x="1150" y="481" width="16" height="22" fill="#d7a35a" opacity=".72"/>
<rect x="1150" y="529" width="16" height="22" fill="#6d7d89" opacity=".72"/>
<rect x="1150" y="577" width="16" height="22" fill="#6d7d89" opacity=".72"/>
<rect x="1150" y="625" width="16" height="22" fill="#d7a35a" opacity=".72"/>
<rect x="1150" y="673" width="16" height="22" fill="#d7a35a" opacity=".72"/>
<rect x="1192" y="433" width="16" height="22" fill="#6d7d89" opacity=".72"/>
<rect x="1192" y="481" width="16" height="22" fill="#d7a35a" opacity=".72"/>
<rect x="1192" y="529" width="16" height="22" fill="#d7a35a" opacity=".72"/>
<rect x="1192" y="577" width="16" height="22" fill="#fffaf0" opacity=".72"/>
<rect x="1192" y="625" width="16" height="22" fill="#6d7d89" opacity=".72"/>
<rect x="1192" y="673" width="16" height="22" fill="#d7a35a" opacity=".72"/>
<rect x="1234" y="433" width="16" height="22" fill="#6d7d89" opacity=".72"/>
<rect x="1234" y="481" width="16" height="22" fill="#6d7d89" opacity=".72"/>
<rect x="1234" y="529" width="16" height="22" fill="#6d7d89" opacity=".72"/>
<rect x="1234" y="577" width="16" height="22" fill="#fffaf0" opacity=".72"/>
<rect x="1234" y="625" width="16" height="22" fill="#fffaf0" opacity=".72"/>
<rect x="1234" y="673" width="16" height="22" fill="#fffaf0" opacity=".72"/>
<rect x="1276" y="433" width="16" height="22" fill="#6d7d89" opacity=".72"/>
<rect x="1276" y="481" width="16" height="22" fill="#6d7d89" opacity=".72"/>
<rect x="1276" y="529" width="16" height="22" fill="#6d7d89" opacity=".72"/>
<rect x="1276" y="577" width="16" height="22" fill="#6d7d89" opacity=".72"/>
<rect x="1276" y="625" width="16" height="22" fill="#fffaf0" opacity=".72"/>
<rect x="1276" y="673" width="16" height="22" fill="#d7a35a" opacity=".72"/>
<rect x="854" y="356" width="299" height="327" fill="#c8c5bc"/>
<rect x="872" y="380" width="16" height="22" fill="#d7a35a" opacity=".72"/>
<rect x="872" y="428" width="16" height="22" fill="#d7a35a" opacity=".72"/>
<rect x="872" y="476" width="16" height="22" fill="#d7a35a" opacity=".72"/>
<rect x="872" y="524" width="16" height="22" fill="#6d7d89" opacity=".72"/>
<rect x="872" y="572" width="16" height="22" fill="#6d7d89" opacity=".72"/>
<rect x="872" y="620" width="16" height="22" fill="#6d7d89" opacity=".72"/>
<rect x="872" y="668" width="16" height="22" fill="#d7a35a" opacity=".72"/>
<rect x="914" y="380" width="16" height="22" fill="#fffaf0" opacity=".72"/>
<rect x="914" y="428" width="16" height="22" fill="#fffaf0" opacity=".72"/>
<rect x="914" y="476" width="16" height="22" fill="#6d7d89" opacity=".72"/>
<rect x="914" y="524" width="16" height="22" fill="#fffaf0" opacity=".72"/>
<rect x="914" y="572" width="16" height="22" fill="#d7a35a" opacity=".72"/>
<rect x="914" y="620" width="16" height="22" fill="#6d7d89" opacity=".72"/>
<rect x="914" y="668" width="16" height="22" fill="#6d7d89" opacity=".72"/>
<rect x="956" y="380" width="16" height="22" fill="#fffaf0" opacity=".72"/>
<rect x="956" y="428" width="16" height="22" fill="#fffaf0" opacity=".72"/>
<rect x="956" y="476" width="16" height="22" fill="#6d7d89" opacity=".72"/>
<rect x="956" y="524" width="16" height="22" fill="#6d7d89" opacity=".72"/>
<rect x="956" y="572" width="16" height="22" fill="#6d7d89" opacity=".72"/>
<rect x="956" y="620" width="16" height="22" fill="#fffaf0" opacity=".72"/>
<rect x="956" y="668" width="16" height="22" fill="#fffaf0" opacity=".72"/>
<rect x="998" y="380" width="16" height="22" fill="#fffaf0" opacity=".72"/>
<rect x="998" y="428" width="16" height="22" fill="#d7a35a" opacity=".72"/>
<rect x="998" y="476" width="16" height="22" fill="#d7a35a" opacity=".72"/>
<rect x="998" y="524" width="16" height="22" fill="#d7a35a" opacity=".72"/>
<rect x="998" y="572" width="16" height="22" fill="#d7a35a" opacity=".72"/>
<rect x="998" y="620" width="16" height="22" fill="#6d7d89" opacity=".72"/>
<rect x="998" y="668" width="16" height="22" fill="#d7a35a" opacity=".72"/>
<rect x="1040" y="380" width="16" height="22" fill="#d7a35a" opacity=".72"/>
<rect x="1040" y="428" width="16" height="22" fill="#d7a35a" opacity=".72"/>
<rect x="1040" y="476" width="16" height="22" fill="#d7a35a" opacity=".72"/>
<rect x="1040" y="524" width="16" height="22" fill="#d7a35a" opacity=".72"/>
<rect x="1040" y="572" width="16" height="22" fill="#fffaf0" opacity=".72"/>
<rect x="1040" y="620" width="16" height="22" fill="#6d7d89" opacity=".72"/>
<rect x="1040" y="668" width="16" height="22" fill="#6d7d89" opacity=".72"/>
<rect x="1082" y="380" width="16" height="22" fill="#d7a35a" opacity=".72"/>
<rect x="1082" y="428" width="16" height="22" fill="#6d7d89" opacity=".72"/>
<rect x="1082" y="476" width="16" height="22" fill="#fffaf0" opacity=".72"/>
<rect x="1082" y="524" width="16" height="22" fill="#fffaf0" opacity=".72"/>
<rect x="1082" y="572" width="16" height="22" fill="#6d7d89" opacity=".72"/>
<rect x="1082" y="620" width="16" height="22" fill="#6d7d89" opacity=".72"/>
<rect x="1082" y="668" width="16" height="22" fill="#6d7d89" opacity=".72"/>
<rect x="1124" y="380" width="16" height="22" fill="#d7a35a" opacity=".72"/>
<rect x="1124" y="428" width="16" height="22" fill="#fffaf0" opacity=".72"/>
<rect x="1124" y="476" width="16" height="22" fill="#6d7d89" opacity=".72"/>
<rect x="1124" y="524" width="16" height="22" fill="#6d7d89" opacity=".72"/>
<rect x="1124" y="572" width="16" height="22" fill="#d7a35a" opacity=".72"/>
<rect x="1124" y="620" width="16" height="22" fill="#d7a35a" opacity=".72"/>
<rect x="1124" y="668" width="16" height="22" fill="#6d7d89" opacity=".72"/>
<rect x="1246" y="316" width="222" height="372" fill="#c8c5bc"/>
<rect x="1264" y="340" width="16" height="22" fill="#d7a35a" opacity=".72"/>
<rect x="1264" y="388" width="16" height="22" fill="#d7a35a" opacity=".72"/>
<rect x="1264" y="436" width="16" height="22" fill="#d7a35a" opacity=".72"/>
<rect x="1264" y="484" width="16" height="22" fill="#d7a35a" opacity=".72"/>
<rect x="1264" y="532" width="16" height="22" fill="#fffaf0" opacity=".72"/>
<rect x="1264" y="580" width="16" height="22" fill="#fffaf0" opacity=".72"/>
<rect x="1264" y="628" width="16" height="22" fill="#6d7d89" opacity=".72"/>
<rect x="1264" y="676" width="16" height="22" fill="#d7a35a" opacity=".72"/>
<rect x="1306" y="340" width="16" height="22" fill="#6d7d89" opacity=".72"/>
<rect x="1306" y="388" width="16" height="22" fill="#d7a35a" opacity=".72"/>
<rect x="1306" y="436" width="16" height="22" fill="#fffaf0" opacity=".72"/>
<rect x="1306" y="484" width="16" height="22" fill="#d7a35a" opacity=".72"/>
<rect x="1306" y="532" width="16" height="22" fill="#d7a35a" opacity=".72"/>
<rect x="1306" y="580" width="16" height="22" fill="#d7a35a" opacity=".72"/>
<rect x="1306" y="628" width="16" height="22" fill="#6d7d89" opacity=".72"/>
<rect x="1306" y="676" width="16" height="22" fill="#6d7d89" opacity=".72"/>
<rect x="1348" y="340" width="16" height="22" fill="#fffaf0" opacity=".72"/>
<rect x="1348" y="388" width="16" height="22" fill="#d7a35a" opacity=".72"/>
<rect x="1348" y="436" width="16" height="22" fill="#6d7d89" opacity=".72"/>
<rect x="1348" y="484" width="16" height="22" fill="#fffaf0" opacity=".72"/>
<rect x="1348" y="532" width="16" height="22" fill="#d7a35a" opacity=".72"/>
<rect x="1348" y="580" width="16" height="22" fill="#6d7d89" opacity=".72"/>
<rect x="1348" y="628" width="16" height="22" fill="#6d7d89" opacity=".72"/>
<rect x="1348" y="676" width="16" height="22" fill="#6d7d89" opacity=".72"/>
<rect x="1390" y="340" width="16" height="22" fill="#fffaf0" opacity=".72"/>
<rect x="1390" y="388" width="16" height="22" fill="#6d7d89" opacity=".72"/>
<rect x="1390" y="436" width="16" height="22" fill="#d7a35a" opacity=".72"/>
<rect x="1390" y="484" width="16" height="22" fill="#d7a35a" opacity=".72"/>
<rect x="1390" y="532" width="16" height="22" fill="#d7a35a" opacity=".72"/>
<rect x="1390" y="580" width="16" height="22" fill="#fffaf0" opacity=".72"/>
<rect x="1390" y="628" width="16" height="22" fill="#d7a35a" opacity=".72"/>
<rect x="1390" y="676" width="16" height="22" fill="#6d7d89" opacity=".72"/>
<rect x="1432" y="340" width="16" height="22" fill="#fffaf0" opacity=".72"/>
<rect x="1432" y="388" width="16" height="22" fill="#d7a35a" opacity=".72"/>
<rect x="1432" y="436" width="16" height="22" fill="#d7a35a" opacity=".72"/>
<rect x="1432" y="484" width="16" height="22" fill="#6d7d89" opacity=".72"/>
<rect x="1432" y="532" width="16" height="22" fill="#6d7d89" opacity=".72"/>
<rect x="1432" y="580" width="16" height="22" fill="#6d7d89" opacity=".72"/>
<rect x="1432" y="628" width="16" height="22" fill="#d7a35a" opacity=".72"/>
<rect x="1432" y="676" width="16" height="22" fill="#d7a35a" opacity=".72"/>
<rect x="1055" y="514" width="136" height="204" fill="#173551"/>
<rect x="1073" y="538" width="16" height="22" fill="#6d7d89" opacity=".72"/>
<rect x="1073" y="586" width="16" height="22" fill="#6d7d89" opacity=".72"/>
<rect x="1073" y="634" width="16" height="22" fill="#d7a35a" opacity=".72"/>
<rect x="1073" y="682" width="16" height="22" fill="#fffaf0" opacity=".72"/>
<rect x="1115" y="538" width="16" height="22" fill="#6d7d89" opacity=".72"/>
<rect x="1115" y="586" width="16" height="22" fill="#d7a35a" opacity=".72"/>
<rect x="1115" y="634" width="16" height="22" fill="#fffaf0" opacity=".72"/>
<rect x="1115" y="682" width="16" height="22" fill="#d7a35a" opacity=".72"/>
<rect x="1157" y="538" width="16" height="22" fill="#6d7d89" opacity=".72"/>
<rect x="1157" y="586" width="16" height="22" fill="#d7a35a" opacity=".72"/>
<rect x="1157" y="634" width="16" height="22" fill="#6d7d89" opacity=".72"/>
<rect x="1157" y="682" width="16" height="22" fill="#6d7d89" opacity=".72"/>
<rect x="1504" y="478" width="216" height="216" fill="#314d65"/>
<rect x="1522" y="502" width="16" height="22" fill="#6d7d89" opacity=".72"/>
<rect x="1522" y="550" width="16" height="22" fill="#d7a35a" opacity=".72"/>
<rect x="1522" y="598" width="16" height="22" fill="#fffaf0" opacity=".72"/>
<rect x="1522" y="646" width="16" height="22" fill="#fffaf0" opacity=".72"/>
<rect x="1522" y="694" width="16" height="22" fill="#6d7d89" opacity=".72"/>
<rect x="1564" y="502" width="16" height="22" fill="#fffaf0" opacity=".72"/>
<rect x="1564" y="550" width="16" height="22" fill="#6d7d89" opacity=".72"/>
<rect x="1564" y="598" width="16" height="22" fill="#fffaf0" opacity=".72"/>
<rect x="1564" y="646" width="16" height="22" fill="#6d7d89" opacity=".72"/>
<rect x="1564" y="694" width="16" height="22" fill="#fffaf0" opacity=".72"/>
<rect x="1606" y="502" width="16" height="22" fill="#d7a35a" opacity=".72"/>
<rect x="1606" y="550" width="16" height="22" fill="#6d7d89" opacity=".72"/>
<rect x="1606" y="598" width="16" height="22" fill="#fffaf0" opacity=".72"/>
<rect x="1606" y="646" width="16" height="22" fill="#6d7d89" opacity=".72"/>
<rect x="1606" y="694" width="16" height="22" fill="#fffaf0" opacity=".72"/>
<rect x="1648" y="502" width="16" height="22" fill="#6d7d89" opacity=".72"/>
<rect x="1648" y="550" width="16" height="22" fill="#6d7d89" opacity=".72"/>
<rect x="1648" y="598" width="16" height="22" fill="#fffaf0" opacity=".72"/>
<rect x="1648" y="646" width="16" height="22" fill="#fffaf0" opacity=".72"/>
<rect x="1648" y="694" width="16" height="22" fill="#d7a35a" opacity=".72"/>
<rect x="1690" y="502" width="16" height="22" fill="#fffaf0" opacity=".72"/>
<rect x="1690" y="550" width="16" height="22" fill="#6d7d89" opacity=".72"/>
<rect x="1690" y="598" width="16" height="22" fill="#6d7d89" opacity=".72"/>
<rect x="1690" y="646" width="16" height="22" fill="#fffaf0" opacity=".72"/>
<rect x="1690" y="694" width="16" height="22" fill="#d7a35a" opacity=".72"/>
</g>
  <rect x="32" y="32" width="56" height="3" fill="#d7a35a"/>
  <rect x="32" y="50" width="420" height="42" fill="#00152f" opacity=".86"/>
  <text x="52" y="77" fill="#e9c58c" font-family="Arial, sans-serif" font-size="18" font-weight="700">LOCAL PHOTOGRAPHY PLACEHOLDER</text>
</svg>